<svg xmlns="http://www.w3.org/2000/svg" version="1.1" xmlns:xlink="http://www.w3.org/1999/xlink" width="2000" height="137" viewBox="0 0 2000 137"><svg xml:space="preserve" width="2000" height="137" data-version="2" data-id="lg_XhIlhk2xuDUo8zZs2z" viewBox="0 0 553 137" x="0" y="0"><rect width="100%" height="100%" fill="transparent"></rect><path fill="#fff" d="M75.19 135.47h-4.101a1.367 1.367 0 0 1-1.367-1.19l-5.399-40.593-5.057-5.672-5.945 5.03v10.989a1.367 1.367 0 0 1-.342.902l-10.593 11.918v3.595a1.367 1.367 0 0 1-.369.93l-6.424 6.765a1.367 1.367 0 0 1-2.241-.383l-1.777-4.045a1.367 1.367 0 0 1 .273-1.504l2.337-2.35v-.78l-4.414 3.772a1.367 1.367 0 0 1-1.285.274l-4.825-1.449a1.367 1.367 0 0 1-.547-2.31l8.693-8.146a1.367 1.367 0 0 1 .943-.37h5.126l7.244-9.252V92.84l-5.016-.998-3.185 3.17v3.185a1.367 1.367 0 0 1-.342.916l-5.125 5.809a1.367 1.367 0 0 1-2.392-.793l-.41-4.825a1.367 1.367 0 0 1 .26-.943l.874-1.161h-.437l-3.5 2.692a1.367 1.367 0 0 1-1.202.246l-4.838-1.367a1.367 1.367 0 0 1-.547-2.323l7.722-7.08a1.367 1.367 0 0 1 .93-.37h4.346l5.33-5.302q.41-.397.985-.397l9.895.219 3.322-5.399a49.205 49.205 0 0 1-1.285-3.28l-5.754-1.613a1.367 1.367 0 0 1-.67-.424l-3.69-4.305h-2.912l-5.057 5.057a1.367 1.367 0 0 1-.97.41h-9.007l-3.69 3.69a1.367 1.367 0 0 1-.971.41H9.583a1.367 1.367 0 0 1-1.134-2.118l2.733-4.1a1.367 1.367 0 0 1 1.135-.616h2.173l1.367-1.366-1.367-1.367H9.583a1.367 1.367 0 0 1-1.134-.602l-2.734-4.1a1.367 1.367 0 0 1 1.134-2.132h10.935a1.367 1.367 0 0 1 .957.41l3.704 3.69h5.713l2.733-2.733h-4.906a1.367 1.367 0 0 1-1.094-.547l-4.1-5.467a1.367 1.367 0 0 1 1.093-2.187h13.668a1.367 1.367 0 0 1 1.094.547l3.69 4.92h3.417a1.367 1.367 0 0 1 1.052.492l3.35 4.046 1.366-.82c.328-2.119 1.011-4.073 2.118-6.178L41.8 45.26H30.863a1.367 1.367 0 0 1-.97-.41L19.67 34.327h-5.235a1.367 1.367 0 0 1-.984-.424L6.685 26.81a1.367 1.367 0 0 1 .547-2.227l4.839-1.64a1.367 1.367 0 0 1 1.462.382l2.474 2.802h.41v-2.665l-4.073-4.442a1.367 1.367 0 0 1-.287-1.353l1.6-4.825a1.367 1.367 0 0 1 2.282-.52l8.296 8.693a1.367 1.367 0 0 1 .383.957v5.262l8.802 9.827h9.786l.725-5.617-2.092-2.583h-5.152a1.367 1.367 0 0 1-.97-.41l-5.796-5.796a1.367 1.367 0 0 1 .656-2.296l4.839-1.107a1.367 1.367 0 0 1 1.421.547l1.449 2.132v-3.335l-2.952-3.472a1.367 1.367 0 0 1-.274-1.298l1.504-4.839a1.367 1.367 0 0 1 2.31-.52l7.244 7.737a1.367 1.367 0 0 1 .369.93v5.193l4.947 4.415a1.367 1.367 0 0 1 .438 1.148l-1.258 12.848 8.789 7.805a20.502 20.502 0 0 1 7.517-2.925l.451-1.19-5.235-3.499a1.367 1.367 0 0 1-.615-1.134v-3.417l-4.92-3.69a1.367 1.367 0 0 1-.547-1.094V17.925a1.367 1.367 0 0 1 2.187-1.093l5.467 4.1a1.367 1.367 0 0 1 .547 1.094v4.906l2.734-2.733v-5.727l-3.69-3.69a1.367 1.367 0 0 1-.41-.957V2.89a1.367 1.367 0 0 1 2.118-1.134l4.1 2.734a1.367 1.367 0 0 1 .615 1.134v4.907l1.367 1.367 1.367-1.367V8.358a1.367 1.367 0 0 1 .615-1.135l4.1-2.733a1.367 1.367 0 0 1 2.119 1.134v8.2a1.367 1.367 0 0 1-.41.958l-3.69 3.717v8.994a1.367 1.367 0 0 1-.41.957l-5.058 5.084v2.816l5.385 3.69a1.367 1.367 0 0 1 .506.67l2.105 5.713a19.135 19.135 0 0 1 4.62 2.406l3.786-2.884v-6.151a1.367 1.367 0 0 1 .437-.998l3.964-3.663-.984-12.998a1.367 1.367 0 0 1 .3-.957l3.117-3.882v-5.33a1.367 1.367 0 0 1 .437-.984l8.27-7.736a1.367 1.367 0 0 1 2.227.601l1.504 4.839a1.367 1.367 0 0 1-.41 1.421l-3.827 3.458v2.993h2.733l1.517-1.886a1.344 1.344 0 0 1 1.203-.492l4.839.506a1.367 1.367 0 0 1 .833 2.31l-5.795 5.986a1.367 1.367 0 0 1-.984.41h-5.153l-2.146 2.625.137 2.843h13.026l6.191-9.377v-5.399a1.367 1.367 0 0 1 .438-.997l9.321-8.693a1.367 1.367 0 0 1 2.228.574l1.6 4.825a1.367 1.367 0 0 1-.397 1.449l-4.989 4.428v2.255h3.185l2.5-2.446a1.367 1.367 0 0 1 1.231-.356l4.838 1.025a1.367 1.367 0 0 1 .725 2.27l-6.766 7.27a1.367 1.367 0 0 1-1.011.438h-5.208L115.018 36.65a1.367 1.367 0 0 1-.984.41h-11.14l-8.57 6.315v5.987a1.367 1.367 0 0 1-.163.642l-4.073 7.681.41.643c.464.724.984 1.517 1.325 2.337l8.447 3.144q.41.136.656.505l3.69 5.55h2.816l5.057-5.058a1.367 1.367 0 0 1 .97-.41h9.008l3.69-3.69a1.367 1.367 0 0 1 .97-.41h8.202a1.367 1.367 0 0 1 1.134 2.119l-2.734 4.1a1.367 1.367 0 0 1-1.134.615h-2.173l-1.367 1.367 1.367 1.367h4.907a1.367 1.367 0 0 1 1.134.615l2.734 4.1a1.367 1.367 0 0 1-1.135 2.119h-10.934a1.367 1.367 0 0 1-.957-.41l-3.718-3.69h-5.713l-2.733 2.733h4.92a1.367 1.367 0 0 1 1.093.547l4.1 5.467a1.367 1.367 0 0 1-1.093 2.187H109.36a1.367 1.367 0 0 1-1.093-.547l-3.69-4.92h-3.417a1.367 1.367 0 0 1-1.121-.588l-3.513-5.126-4.551 1.572c-.615 2.05-1.45 3.964-2.379 5.508l5.317 6.834h10.935a1.367 1.367 0 0 1 .97.41L117.054 97.2h5.222q.546 0 .93.369l6.765 6.424a1.367 1.367 0 0 1-.684 2.323l-4.824.957a1.367 1.367 0 0 1-1.012-.205l-2.556-1.668h-3.198l4.551 4.306a1.367 1.367 0 0 1 .41 1.23l-.915 4.852a1.367 1.367 0 0 1-2.27.752l-9.663-8.693a1.367 1.367 0 0 1-.45-1.011v-5.29l-6.083-7.08h-9.772l-.725 5.618 2.091 2.583h5.153a1.367 1.367 0 0 1 .902.342l5.836 5.125a1.367 1.367 0 0 1-.792 2.392l-4.825.41a1.367 1.367 0 0 1-.957-.26l-1.558-1.175h-2.939v.615l3.554 3.485a1.367 1.367 0 0 1 .396 1.203l-.82 4.838a1.367 1.367 0 0 1-2.269.78l-8.61-7.737a1.367 1.367 0 0 1-.451-1.011v-5.29l-2.406-2.815a1.367 1.367 0 0 1-.314-1.025l1.298-13.04-3.745-3.84q-1.64.957-4.073 1.872l-3.062 3.335 1.354 43.191a1.367 1.367 0 0 1-1.367 1.408m-2.898-2.734h1.49l-1.312-42.33a1.367 1.367 0 0 1 .355-.956l3.636-4.005a1.367 1.367 0 0 1 .547-.369q3.089-1.134 4.742-2.296a1.367 1.367 0 0 1 1.764.164l4.975 5.098q.41.451.382 1.093l-1.312 13.08 2.351 2.762a1.367 1.367 0 0 1 .328.888v5.194l6.315 5.659.273-1.682-3.444-3.362a1.367 1.367 0 0 1-.41-.984v-2.556a1.367 1.367 0 0 1 1.367-1.367h4.756a1.367 1.367 0 0 1 .82.274l1.504 1.134 1.148-.096-3.035-2.679h-5.275a1.367 1.367 0 0 1-1.053-.505l-2.897-3.527a1.367 1.367 0 0 1-.301-1.052l.957-7.394a1.367 1.367 0 0 1 1.366-1.19h11.577a1.367 1.367 0 0 1 1.039.479l6.82 7.927a1.367 1.367 0 0 1 .328.889v5.193l7.408 6.67.328-1.708-4.578-4.32a1.367 1.367 0 0 1-.424-.997v-1.831a1.367 1.367 0 0 1 1.367-1.367h5.112a1.367 1.367 0 0 1 .738.218l2.446 1.586 1.681-.328-4.428-4.21h-5.262a1.367 1.367 0 0 1-.97-.41L105.258 89H94.243a1.367 1.367 0 0 1-1.094-.533l-6.314-8.133a1.367 1.367 0 0 1-.041-1.613c1.093-1.585 2.077-3.786 2.733-6.218a1.367 1.367 0 0 1 .875-.93l6.205-2.146a1.367 1.367 0 0 1 1.572.52l3.69 5.385h3.39a1.367 1.367 0 0 1 1.093.547l3.69 4.92h10.252l-2.05-2.734h-7.518a1.367 1.367 0 0 1-.957-2.323l5.468-5.467a1.367 1.367 0 0 1 .956-.41h6.834a1.367 1.367 0 0 1 .957.41l3.704 3.69h7.818l-.902-1.367h-4.743a1.367 1.367 0 0 1-.956-.41l-2.734-2.733a1.367 1.367 0 0 1 0-1.914l2.734-2.734a1.367 1.367 0 0 1 .956-.41h2.01l.902-1.366h-5.085l-3.69 3.69a1.367 1.367 0 0 1-.97.41h-9.008l-5.057 5.057a1.367 1.367 0 0 1-.97.41h-4.1a1.367 1.367 0 0 1-1.135-.601L98.903 66.2l-8.61-3.185a1.367 1.367 0 0 1-.848-.902c-.191-.684-.724-1.504-1.23-2.296q-.52-.766-.902-1.463a1.367 1.367 0 0 1 0-1.285l4.278-8.05v-6.328a1.367 1.367 0 0 1 .547-1.094l9.499-6.998a1.367 1.367 0 0 1 .806-.273h11.017l10.237-10.525a1.367 1.367 0 0 1 .97-.41h5.208l4.716-5.057-1.75-.382-2.378 2.323a1.367 1.367 0 0 1-.957.383h-5.112a1.367 1.367 0 0 1-1.367-1.367v-4.237a1.367 1.367 0 0 1 .465-1.025l4.784-4.237-.656-1.955-7.326 6.834v5.221a1.367 1.367 0 0 1-.219.752l-6.834 10.333a1.367 1.367 0 0 1-1.134.615H97.058a1.367 1.367 0 0 1-1.367-1.298l-.246-4.661a1.367 1.367 0 0 1 .315-.943l2.897-3.526a1.367 1.367 0 0 1 1.053-.506h5.221l3.444-3.554-1.312-.137-1.462 1.818a1.367 1.367 0 0 1-1.066.506h-4.743a1.367 1.367 0 0 1-1.367-1.367V12.95a1.367 1.367 0 0 1 .451-1.011l3.663-3.28-.601-1.914-6.247 5.836v5.208a1.367 1.367 0 0 1-.3.86l-3.076 3.814.985 13.121a1.367 1.367 0 0 1-.438 1.107l-4.005 3.704v6.233a1.367 1.367 0 0 1-.546 1.093l-5.126 3.868a1.367 1.367 0 0 1-1.613.014c-1.735-1.23-3.28-2.187-5.303-2.788a1.367 1.367 0 0 1-.888-.848l-2.187-5.931-5.604-3.841a1.367 1.367 0 0 1-.601-1.135v-4.1a1.367 1.367 0 0 1 .41-.957l5.057-5.07v-9.008a1.367 1.367 0 0 1 .41-.957l3.69-3.704V8.18l-1.367.916v1.995a1.367 1.367 0 0 1-.41.957l-2.733 2.734a1.367 1.367 0 0 1-1.914 0L67.4 12.048a1.367 1.367 0 0 1-.41-.957V6.362l-1.367-.916v7.818l3.69 3.69a1.367 1.367 0 0 1 .41.971v6.834a1.367 1.367 0 0 1-.41.957l-5.467 5.467a1.367 1.367 0 0 1-2.324-.957V22.71l-2.733-2.05v10.25l4.92 3.691a1.367 1.367 0 0 1 .547 1.094v3.376l5.55 3.69a1.367 1.367 0 0 1 .505 1.626l-1.135 2.953a1.367 1.367 0 0 1-1.093.86 18.588 18.588 0 0 0-8.037 3.185 1.367 1.367 0 0 1-1.68-.095l-10.088-8.98a1.367 1.367 0 0 1-.45-1.148l1.257-12.848-4.88-4.374a1.367 1.367 0 0 1-.451-1.011v-5.262l-5.276-5.618-.574 1.872 2.788 3.28a1.367 1.367 0 0 1 .328.89v5.302a1.367 1.367 0 0 1-1.366 1.367h-2.01a1.367 1.367 0 0 1-1.134-.588l-1.408-2.05-1.517.342 3.65 3.663h5.234a1.367 1.367 0 0 1 1.053.506l2.91 3.526a1.367 1.367 0 0 1 .288 1.052l-.957 7.395a1.367 1.367 0 0 1-1.367 1.189H32.82a1.367 1.367 0 0 1-1.012-.451L22.24 28.682a1.367 1.367 0 0 1-.342-.916v-5.248l-6.356-6.657-.628 1.914 3.895 4.237a1.367 1.367 0 0 1 .355.916v4.565a1.367 1.367 0 0 1-1.367 1.367h-2.391a1.367 1.367 0 0 1-1.012-.451l-2.31-2.597-1.94.67 4.879 5.111h5.221a1.367 1.367 0 0 1 .97.41l10.238 10.525h11.016c.41 0 .82.191 1.08.519l10.798 13.805a1.367 1.367 0 0 1 .109 1.53 17.768 17.768 0 0 0-2.324 6.643 1.367 1.367 0 0 1-.656.998l-2.91 1.763a1.367 1.367 0 0 1-1.764-.3l-3.69-4.456h-3.458a1.367 1.367 0 0 1-1.094-.547l-3.69-4.92H24.618l2.05 2.733h7.517a1.367 1.367 0 0 1 .957 2.324l-5.467 5.467a1.367 1.367 0 0 1-.957.41h-6.834a1.367 1.367 0 0 1-.957-.41l-3.717-3.69H9.405l.916 1.366h4.73a1.367 1.367 0 0 1 .956.41l2.734 2.734a1.367 1.367 0 0 1 0 1.913l-2.734 2.734a1.367 1.367 0 0 1-.957.41h-1.995l-.916 1.367h5.084l3.69-3.69a1.367 1.367 0 0 1 .971-.41h9.007l5.058-5.058a1.367 1.367 0 0 1 .97-.41h4.1a1.367 1.367 0 0 1 1.04.479l3.826 4.469 6.069 1.695a1.367 1.367 0 0 1 .93.902 54.672 54.672 0 0 0 1.708 4.374 1.367 1.367 0 0 1-.096 1.27l-4.1 6.657a1.367 1.367 0 0 1-1.19.656l-10.1-.218-5.303 5.289a1.367 1.367 0 0 1-.984.396h-4.374l-5.536 5.071 1.818.506 3.321-2.556a1.367 1.367 0 0 1 .82-.287h2.584a1.367 1.367 0 0 1 1.367 1.367v1.421a1.367 1.367 0 0 1-.274.82l-1.134 1.504.095 1.148 2.68-3.034v-3.226a1.367 1.367 0 0 1 .41-.957l4.1-4.1a1.367 1.367 0 0 1 1.23-.383l6.834 1.367a1.375 1.375 0 0 1 1.093 1.34v10.346a1.367 1.367 0 0 1-.287.847l-7.94 10.156a1.367 1.367 0 0 1-1.094.52h-5.249l-6.56 6.15 1.831.547 4.265-3.623a1.367 1.367 0 0 1 .888-.328h1.845a1.367 1.367 0 0 1 1.367 1.367v2.734a1.367 1.367 0 0 1-.41.957l-2.05 2.077.574 1.312 4.62-4.893v-3.567a1.367 1.367 0 0 1 .341-.902l10.593-11.946V92.416a1.367 1.367 0 0 1 .478-1.053l7.436-6.314a1.367 1.367 0 0 1 1.913.136l6.233 6.985a1.367 1.367 0 0 1 .328.738zm-2.556-54.672a10.934 10.934 0 1 1 0-21.868 10.934 10.934 0 0 1 0 21.868m0-19.135a8.208 8.208 0 1 0 .014 16.415 8.208 8.208 0 0 0-.014-16.415m0 13.668a1.367 1.367 0 1 1 0-2.733c1.914 0 2.734-2.078 2.734-2.734a1.367 1.367 0 1 1 2.733 0c0 1.968-1.831 5.467-5.467 5.467M172.919 104.94h-15.08v-81.2h29.11l16.13 70.76h2.09V23.74h15.08v81.2h-29.12l-16.12-70.76h-2.09zm89.32 1.62q-8.59 0-15.14-3.65-6.55-3.65-10.21-10.32-3.65-6.67-3.65-15.72v-1.39q0-9.05 3.59-15.72 3.6-6.67 10.1-10.33 6.49-3.65 15.08-3.65 8.46 0 14.73 3.77 6.26 3.77 9.74 10.44 3.48 6.67 3.48 15.49v4.98h-41.87q.23 5.92 4.4 9.63 4.18 3.71 10.21 3.71 6.15 0 9.05-2.66 2.9-2.67 4.41-5.92l11.95 6.26q-1.63 3.02-4.7 6.56-3.08 3.54-8.18 6.03t-12.99 2.49m-14.04-37h26.91q-.46-4.99-4-8-3.54-3.02-9.22-3.02-5.92 0-9.4 3.02-3.48 3.01-4.29 8m76.68 36.31q-6.73 0-11.78-3.08-5.04-3.07-7.83-8.52-2.78-5.45-2.78-12.53V47.4h14.62v33.18q0 6.5 3.19 9.74 3.19 3.25 9.1 3.25 6.73 0 10.44-4.46 3.71-4.47 3.71-12.47V47.4h14.62v57.54h-14.38V97.4h-2.09q-1.39 2.9-5.22 5.68-3.83 2.79-11.6 2.79m64.15-.93h-14.62V47.4h14.38v6.5h2.09q1.28-3.48 4.24-5.1 2.95-1.63 6.9-1.63h6.96v12.99h-7.19q-5.57 0-9.17 2.96-3.59 2.96-3.59 9.11zm58.69 1.62q-8.58 0-15.43-3.48-6.84-3.48-10.78-10.09-3.95-6.61-3.95-15.89v-1.86q0-9.28 3.95-15.89 3.94-6.61 10.78-10.09 6.85-3.48 15.43-3.48 8.59 0 15.43 3.48t10.79 10.09q3.94 6.61 3.94 15.89v1.86q0 9.28-3.94 15.89-3.95 6.61-10.79 10.09-6.84 3.48-15.43 3.48m0-12.99q6.73 0 11.14-4.35t4.41-12.47v-1.16q0-8.12-4.35-12.47-4.35-4.35-11.2-4.35-6.73 0-11.13 4.35-4.41 4.35-4.41 12.47v1.16q0 8.12 4.41 12.47 4.4 4.35 11.13 4.35m58.23 11.37h-14.61V47.4h14.38v7.54h2.09q1.39-3.01 5.22-5.74 3.83-2.72 11.6-2.72 6.73 0 11.77 3.07 5.05 3.07 7.83 8.47 2.79 5.39 2.79 12.58v34.34h-14.62V71.76q0-6.49-3.19-9.74t-9.1-3.25q-6.73 0-10.44 4.47-3.72 4.46-3.72 12.47z"></path></svg></svg>